<?xml version="1.0" encoding="utf-8"?>
<svg width="800" height="800" viewBox="0 0 256 240" fill="none" xmlns="http://www.w3.org/2000/svg">

    <defs>
        <linearGradient id="gfGradient" x1="0" y1="0" x2="256" y2="240" gradientUnits="userSpaceOnUse">
            <stop offset="0%" stop-color="#60A5FA"/>
            <stop offset="50%" stop-color="#3B82F6"/>
            <stop offset="100%" stop-color="#2563EB"/>
        </linearGradient>
    </defs>

    <g transform="translate(50 45) scale(0.6)">

        <path
            fill="url(#gfGradient)"
            d="M84.635,20.256c18.383,0,33.286,14.903,33.286,33.286s-14.903,33.286-33.286,33.286S51.349,71.925,51.349,53.542
            S66.251,20.256,84.635,20.256z

            M31.002,145.011c0-2.499,1.606-4.194,4.194-4.194s4.194,1.606,4.194,4.194v92.986
            h91.469v-92.986c0-2.499,1.606-4.194,4.194-4.194c2.499,0,4.194,1.606,4.194,4.194v92.986
            h29.092V136.623c0-22.934-18.74-41.585-41.585-41.585h-8.388l-24.451,38.015l-2.945-28.467
            l4.016-9.638H76.96l4.016,9.638l-3.123,28.645L53.401,95.038h-9.816
            C20.651,95.038,2,113.778,2,136.623v101.375h29.092v-92.986H31.002z

            M244,80V8h-14v72h-5V24h-14v56h-5V51h-14v29h-5V65h-14v15h-9V2h-5v84h95v-6H244z"/>

    </g>

</svg>
