<?xml version="1.0" encoding="utf-8"?>
<svg
    width="800"
    height="800"
    viewBox="0 0 24 24"
    fill="none"
    xmlns="http://www.w3.org/2000/svg">

    <defs>
        <linearGradient id="gfGradient" x1="0" y1="0" x2="24" y2="24" gradientUnits="userSpaceOnUse">
            <stop offset="0%" stop-color="#60A5FA"/>
            <stop offset="50%" stop-color="#3B82F6"/>
            <stop offset="100%" stop-color="#2563EB"/>
        </linearGradient>
    </defs>

    <!-- 60% size, centered -->
    <g transform="translate(4.8 4.8) scale(0.6)">

        <path
            fill="url(#gfGradient)"
            d="M16.95 11.95a6.996 6.996 0 0 0 1.858-6.582l2.495-1.07a.5.5 0 0 1 .697.46V19l-7 3-6-3-6.303 2.701a.5.5 0 0 1-.697-.46V7l3.129-1.341a6.993 6.993 0 0 0 1.921 6.29L12 16.9l4.95-4.95zm-1.414-1.414L12 14.07l-3.536-3.535a5 5 0 1 1 7.072 0z"/>

    </g>

</svg>
